<?xml version="1.0" encoding="UTF-8"?>
<svg id="Layer_1" data-name="Layer 1" xmlns="http://www.w3.org/2000/svg" xmlns:xlink="http://www.w3.org/1999/xlink" viewBox="0 0 55 56">
  <defs>
    <style>
      .cls-1 {
        fill: url(#linear-gradient);
      }

      .cls-1, .cls-2, .cls-3, .cls-4, .cls-5, .cls-6, .cls-7, .cls-8, .cls-9, .cls-10 {
        stroke-width: 0px;
      }

      .cls-2 {
        fill: #6393ff;
      }

      .cls-3 {
        fill: url(#linear-gradient-6);
      }

      .cls-4 {
        fill: url(#linear-gradient-5);
      }

      .cls-5 {
        fill: url(#linear-gradient-2);
      }

      .cls-6 {
        fill: url(#linear-gradient-7);
      }

      .cls-7 {
        fill: url(#linear-gradient-3);
      }

      .cls-8 {
        fill: #4180af;
      }

      .cls-9 {
        fill: url(#linear-gradient-8);
      }

      .cls-10 {
        fill: url(#linear-gradient-4);
      }
    </style>
    <linearGradient id="linear-gradient" x1="8.13" y1="38.53" x2="15.57" y2="41.07" gradientTransform="translate(0 56) scale(1 -1)" gradientUnits="userSpaceOnUse">
      <stop offset="0" stop-color="#6393ff"/>
      <stop offset="1" stop-color="#f7941d"/>
    </linearGradient>
    <linearGradient id="linear-gradient-2" x1="13.79" y1="40.27" x2="19.8" y2="42.32" xlink:href="#linear-gradient"/>
    <linearGradient id="linear-gradient-3" x1="18.72" y1="39.75" x2="25.01" y2="41.9" xlink:href="#linear-gradient"/>
    <linearGradient id="linear-gradient-4" x1="23.89" y1="41.29" x2="29.39" y2="43.16" xlink:href="#linear-gradient"/>
    <linearGradient id="linear-gradient-5" x1="28.85" y1="40.78" x2="34.59" y2="42.74" xlink:href="#linear-gradient"/>
    <linearGradient id="linear-gradient-6" x1="33.79" y1="40.27" x2="39.8" y2="42.32" xlink:href="#linear-gradient"/>
    <linearGradient id="linear-gradient-7" x1="38.9" y1="41.77" x2="44.2" y2="43.58" xlink:href="#linear-gradient"/>
    <linearGradient id="linear-gradient-8" x1="43.32" y1="39.58" x2="50.14" y2="41.91" xlink:href="#linear-gradient"/>
  </defs>
  <path class="cls-8" d="m8.8,5h46.2V0H3.8C1.7,0,0,1.7,0,3.8v48.4c0,2.1,1.7,3.8,3.8,3.8h47.4c2.1,0,3.8-1.7,3.8-3.8v-29.2h-5v24.2c0,2.1-1.7,3.8-3.8,3.8H8.8c-2.1,0-3.8-1.7-3.8-3.8V8.8c0-2.1,1.7-3.8,3.8-3.8Z"/>
  <g>
    <path class="cls-2" d="m49,38v2.4c-.52.06-4.04.49-5.35.65-.26.03-.49-.14-.54-.39l-.88-4.4c-.1-.51-.82-.54-.96-.04-.97,3.39-2.1,7.33-2.69,9.39-.13.44-.73.49-.92.07-.99-2.19-2.94-6.47-4.27-9.41-.17-.38-.7-.39-.89-.02-1.05,2.11-2.39,4.79-3.21,6.43-.21.41-.81.35-.92-.1-.38-1.51-1.02-4.02-1.65-6.53-.13-.51-.87-.49-.97.03l-1.77,9.1-.96,5.01c-.39-1.94-1.19-5.92-1.9-9.46-.1-.5-.79-.54-.95-.06-.99,2.96-2.12,6.36-2.88,8.62-.16.49-.88.43-.96-.08-.48-3.08-1.38-8.73-2.13-13.46-.09-.54-.85-.56-.97-.03l-1.27,5.51-.2.9c-.44-.06-5.2-.85-5.77-.94v-2.18h4c.2-.03-.04.2,0,0,.78-3.43,2.64-9.57,3.61-13.77.12-.53.88-.5.97.03.61,3.82,1.66,10.47,2.45,15.51.08.51.79.57.96.08,1.29-3.85,2.76-8.27,3.25-9.74l.74,3.69.91,4.54c.8-5.04,1.85-11.63,2.52-15.81.09-.54.86-.56.97-.02.77,3.68,1.87,8.99,2.72,13.08.1.46.71.54.92.12.93-1.85,1.94-3.89,2.55-5.1.19-.37.72-.36.89.02.8,1.75,2.47,5.44,3.77,8.28.19.42.8.38.92-.07,1.08-3.78,2.58-9.05,3.45-12.11.14-.5.86-.47.96.04.63,3.17,1.87,7.48,2.43,10.23.04.21-.21-.03,0,0h4.02Z"/>
    <path class="cls-2" d="m49,37.6v.8c-.52.06-4.04.49-5.35.65-.26.03-.49-.14-.54-.39l-.88-4.4c-.1-.51-.82-.54-.96-.04-.97,3.39-2.1,7.33-2.69,9.39-.13.44-.73.49-.92.07-.99-2.19-2.94-6.47-4.27-9.41-.17-.38-.7-.39-.89-.02-1.05,2.11-2.39,4.79-3.21,6.43-.21.41-.81.35-.92-.1-.38-1.51-1.02-4.02-1.65-6.53-.13-.51-.87-.49-.97.03l-1.77,9.1-.96,5.01c-.39-1.94-1.19-5.92-1.9-9.46-.1-.5-.79-.54-.95-.06-.99,2.96-2.12,6.36-2.88,8.62-.16.49-.88.43-.96-.08-.48-3.08-1.38-8.73-2.13-13.46-.09-.54-.85-.56-.97-.03l-1.27,5.51-.2.9c-.44-.06-5.2-.85-5.77-.94v-.36l3.85-.63c.2-.03.36-.17.4-.37.78-3.43,2.39-10.39,3.36-14.6.12-.53.88-.5.97.03.61,3.82,1.66,10.47,2.45,15.51.08.51.79.57.96.08,1.29-3.85,2.76-8.27,3.25-9.74l.74,3.69.91,4.54c.8-5.04,1.85-11.63,2.52-15.81.09-.54.86-.56.97-.02.77,3.68,1.87,8.99,2.72,13.08.1.46.71.54.92.12.93-1.85,1.94-3.89,2.55-5.1.19-.37.72-.36.89.02.8,1.75,2.47,5.44,3.77,8.28.19.42.8.38.92-.07,1.08-3.78,2.58-9.05,3.45-12.11.14-.5.86-.47.96.04.63,3.17,1.64,8.24,2.2,10.99.04.21.21.36.42.39l3.8.46h.03Z"/>
  </g>
  <path class="cls-1" d="m13,13c0-1.1-.9-2-2-2s-2,.9-2,2-1,9,2,9,2-7.9,2-9Z"/>
  <path class="cls-5" d="m18,13c0-1.1-.9-2-2-2s-2,.9-2,2,0,6,2,6,2-4.9,2-6Z"/>
  <path class="cls-7" d="m23,13c0-1.1-.9-2-2-2s-2,.9-2,2,0,7,2,7,2-5.9,2-7Z"/>
  <path class="cls-10" d="m28,13c0-1.1-.9-2-2-2s-2,.9-2,2,0,4,2,4,2-2.9,2-4Z"/>
  <path class="cls-4" d="m33,13c0-1.1-.9-2-2-2s-2,.9-2,2,0,5,2,5,2-3.9,2-5Z"/>
  <path class="cls-3" d="m38,13c0-1.1-.9-2-2-2s-2,.9-2,2,0,6,2,6,2-4.9,2-6Z"/>
  <path class="cls-6" d="m43,13c0-1.1-.9-2-2-2s-2,.9-2,2,0,3,2,3,2-1.9,2-3Z"/>
  <path class="cls-9" d="m48,13c0-1.1-.9-2-2-2s-2,.9-2,2-1,7,2,7,2-5.9,2-7Z"/>
</svg>