<?xml version="1.0" encoding="UTF-8"?>
<svg id="Layer_1" data-name="Layer 1" xmlns="http://www.w3.org/2000/svg" xmlns:xlink="http://www.w3.org/1999/xlink" viewBox="0 0 512.01 461.61">
  <defs>
    <style>
      .cls-1 {
        fill: url(#linear-gradient);
        stroke-width: 0px;
      }
    </style>
    <linearGradient id="linear-gradient" x1="21.82" y1="71.06" x2="504.54" y2="392.27" gradientTransform="translate(0 449.52) scale(1 -1)" gradientUnits="userSpaceOnUse">
      <stop offset="0" stop-color="#6393ff"/>
      <stop offset="1" stop-color="#6a7d8c"/>
    </linearGradient>
  </defs>
  <path class="cls-1" d="m512.01,231.05v4.86c0,2.78-2.07,5.11-4.83,5.44-15.23,1.8-57.92,6.87-71.99,8.53-2.52.3-4.91-1.18-5.78-3.56l-2.53-6.94-21.05-57.78c-1.94-5.33-9.71-4.56-10.56,1.04-11.66,76.65-28.37,186.59-37.3,245.29-.86,5.66-8.72,6.37-10.59.96-16.91-48.96-44.35-128.42-63.77-184.67-1.72-4.99-8.81-4.89-10.4.14-10.97,34.8-24.71,78.36-33.95,107.66-1.69,5.35-9.37,5-10.57-.48l-8.18-37.16-26.06-118.54c-1.34-6.1-10.21-5.57-10.8.65-8.78,92.45-19.42,204.5-24.71,260.16-.55,5.76-8.48,6.84-10.56,1.45-21.89-56.74-59.41-154.05-79.41-205.9-.72-1.86-2.39-3.18-4.36-3.45l-59.88-8.23c-2.71-.37-4.73-2.69-4.73-5.43h0c0-2.74,2.02-5.05,4.73-5.43,16.03-2.2,65.17-8.96,79.71-10.96,2.36-.32,4.66.92,5.69,3.07l3.39,7.13,30.48,64.02c2.34,4.92,9.64,3.78,10.37-1.62,12.43-92.05,29.95-221.59,38.72-286.56.82-6.06,9.45-6.42,10.77-.45,13.12,59.21,36.96,166.79,53.28,240.4,1.15,5.17,8.22,5.86,10.36,1.02,9.56-21.68,19.33-43.84,24.89-56.46,1.83-4.14,7.59-4.41,9.79-.46,9.57,17.21,30.27,54.36,48.88,87.78,2.4,4.31,8.82,3.5,10.08-1.27,15.94-60.64,37.47-142.6,46.27-176.04,1.31-4.99,8.17-5.55,10.29-.85,13.26,29.48,40.49,89.85,53.09,117.84.79,1.75,2.44,2.96,4.35,3.18l52.02,6.15c2.76.33,4.83,2.66,4.83,5.44l.02.03Z"/>
</svg>