<?xml version="1.0" encoding="UTF-8"?>
<svg id="Layer_2" data-name="Layer 2" xmlns="http://www.w3.org/2000/svg" xmlns:xlink="http://www.w3.org/1999/xlink" viewBox="0 0 15.98 14.45">
  <defs>
    <style>
      .cls-1 {
        fill: url(#linear-gradient);
      }

      .cls-1, .cls-2, .cls-3, .cls-4, .cls-5 {
        stroke-width: 0px;
      }

      .cls-2 {
        fill: url(#linear-gradient-5);
      }

      .cls-3 {
        fill: url(#linear-gradient-2);
      }

      .cls-4 {
        fill: url(#linear-gradient-3);
      }

      .cls-5 {
        fill: url(#linear-gradient-4);
      }
    </style>
    <linearGradient id="linear-gradient" x1="2.19" y1="15.22" x2="13.97" y2="2.21" gradientTransform="translate(0 16.02) scale(1 -1)" gradientUnits="userSpaceOnUse">
      <stop offset="0" stop-color="#5d8cf3"/>
      <stop offset="1" stop-color="#3a56a6"/>
    </linearGradient>
    <linearGradient id="linear-gradient-2" x1="7.39" y1="8.1" x2="9.93" y2="9.6" gradientUnits="userSpaceOnUse">
      <stop offset="0" stop-color="#fc7f7f"/>
      <stop offset=".29" stop-color="#f37684"/>
      <stop offset=".75" stop-color="#de6092"/>
      <stop offset="1" stop-color="#cf519d"/>
    </linearGradient>
    <linearGradient id="linear-gradient-3" x1="0" y1="9.26" x2="7" y2="9.26" gradientTransform="matrix(1,0,0,1,0,0)" xlink:href="#linear-gradient"/>
    <linearGradient id="linear-gradient-4" x1="9.41" y1="6.48" x2="15.98" y2="6.48" gradientTransform="matrix(1,0,0,1,0,0)" xlink:href="#linear-gradient"/>
    <linearGradient id="linear-gradient-5" x1="5.7" y1="2.25" x2="12.01" y2="11.44" gradientUnits="userSpaceOnUse">
      <stop offset="0" stop-color="#9061cb"/>
      <stop offset="1" stop-color="#08ffff"/>
    </linearGradient>
  </defs>
  <path class="cls-1" d="m.76,7.23c0,.64.08,1.25.24,1.83.75-1.14,1.53-2.34,1.86-2.84.12-.18.3-.3.51-.34.46-1.6,1.72-2.85,3.33-3.29V.14C3.32.74.76,3.69.76,7.23ZM8,0h-.01c-.27.01-.53.02-.79.06v2.42c.26-.05.53-.07.8-.07.31,0,.61.03.91.09V.06c-.3-.04-.6-.06-.91-.06Zm1.41.14v2.48c1.33.41,2.41,1.37,2.97,2.62l1.18-2.64C12.52,1.35,11.06.46,9.41.14Zm5.74,6.02h-.01l-2.63,4.97c-.14.26-.41.42-.7.42-.2,0-.41-.08-.55-.24l-.29-.3c-.54.43-1.18.74-1.87.91-.25.32-.63.5-1.05.5-.19,0-.37-.04-.54-.11-.11.16-.19.3-.25.4-.14.24-.39.37-.66.37-.25,0-.48-.12-.63-.33-.28-.39-.87-1.19-1.48-2.02l-1.02-1.41-1.54,1.81c1.28,2,3.52,3.32,6.07,3.32,3.99,0,7.23-3.24,7.23-7.22,0-.36-.02-.72-.08-1.07Z"/>
  <path class="cls-3" d="m10.33,8.83l-.14.24-.72-.72s-.08-.06-.13-.06-.11.02-.14.08c-.58.92-1.38,2.22-1.92,3.09l-.78-1.35s.02,0,.03,0c.07,0,.13-.04.17-.1l2.18-4.42s.01-.02.03-.03v1.97h.67c.67,0,1.08.72.75,1.29Z"/>
  <g>
    <path class="cls-4" d="m5.33,9.08c-.15-.25-.21-.53-.18-.8-.58-.81-1.13-1.57-1.39-1.94-.03-.06-.09-.08-.14-.08-.06,0-.12.03-.16.08-.05.07-.1.15-.17.25-.43.68-1.24,1.92-1.96,3-.66.98-1.21,1.85-1.33,2.03l.37.28,1.3-1.52,1.77-2.06s.08-.06.13-.06c.06,0,.1.02.14.07.6.81,1.52,2.07,2.17,2.97.28.37.51.7.65.89.03.05.09.07.14.07.06,0,.12-.02.16-.08.05-.07.1-.16.17-.26-.05-.05-.09-.11-.13-.18l-1.54-2.66Z"/>
    <path class="cls-5" d="m15.69,2.65l-.75-.37c-.07-.04-.16-.06-.23-.06-.19,0-.39.12-.47.31l-.19.42-1.29,2.91-1.04,2.31c-.04.07-.1.11-.17.11-.05,0-.09-.01-.13-.06-.66-.77-1.48-1.75-2.01-2.38v1.2h.17c.5,0,.94.25,1.18.68.25.42.25.93,0,1.36l-.21.36.96.96.27.28s.07.06.12.06c.07,0,.13-.04.17-.1l2.97-5.61.88-1.69c.14-.25.04-.57-.23-.69Z"/>
  </g>
  <path class="cls-2" d="m10.33,8.83l-.14.24-1.4,2.42c-.17.29-.45.43-.74.43s-.58-.14-.75-.43l-.02-.03-.78-1.35-.74-1.28c-.33-.57.09-1.29.75-1.29h.69V0h1.71v7.54h.67c.67,0,1.08.72.75,1.29Z"/>
</svg>