<?xml version="1.0" encoding="UTF-8"?>
<svg id="Layer_2" data-name="Layer 2" xmlns="http://www.w3.org/2000/svg" viewBox="0 0 15.98 14.45">
  <defs>
    <style>
      .cls-1 {
        fill: #6393ff;
        stroke-width: 0px;
      }
    </style>
  </defs>
  <g id="Layer_1-2" data-name="Layer 1-2">
    <path class="cls-1" d="m7.99.01C4,.01.76,3.25.76,7.23c0,.64.08,1.25.24,1.83.75-1.14,1.53-2.34,1.86-2.84.12-.18.3-.3.51-.34.58-2.01,2.43-3.47,4.63-3.47,1.95,0,3.63,1.16,4.38,2.83l1.18-2.64c-1.33-1.59-3.33-2.6-5.56-2.6h-.01Zm7.15,6.15l-2.63,4.97c-.14.26-.41.42-.7.42-.2,0-.41-.08-.55-.24l-.29-.3c-.82.65-1.86,1.04-2.98,1.04-.11,0-.2,0-.31-.01-.18.28-.33.52-.42.67-.14.24-.39.37-.66.37-.25,0-.48-.12-.63-.33-.28-.39-.87-1.19-1.48-2.02l-1.02-1.41-1.54,1.81c1.28,2,3.52,3.32,6.07,3.32,3.99,0,7.23-3.24,7.23-7.22,0-.36-.02-.72-.08-1.07h-.01Z"/>
    <path class="cls-1" d="m15.92,3.34l-.88,1.69-2.97,5.61c-.04.06-.1.1-.17.1-.05,0-.08-.02-.12-.06l-.27-.28-2.04-2.05s-.08-.06-.13-.06-.11.02-.14.08c-.64,1.02-1.55,2.5-2.09,3.36-.11.18-.2.33-.28.45-.04.06-.1.08-.16.08-.05,0-.11-.02-.14-.07-.14-.19-.37-.52-.65-.89-.65-.9-1.57-2.16-2.17-2.97-.04-.05-.08-.07-.14-.07-.05,0-.1.02-.13.06l-1.77,2.06-1.3,1.52-.37-.28c.12-.18.67-1.05,1.33-2.03.72-1.08,1.53-2.32,1.96-3,.07-.1.12-.18.17-.25.04-.05.1-.08.16-.08.05,0,.11.02.14.08.46.65,1.8,2.52,2.64,3.71.04.05.08.07.13.07.07,0,.13-.04.17-.1l2.18-4.42c.04-.07.1-.11.16-.11.05,0,.1.02.13.06.48.58,1.48,1.77,2.25,2.67.04.05.08.06.13.06.07,0,.13-.04.17-.11l1.04-2.31,1.29-2.91.19-.42c.08-.19.28-.31.47-.31.07,0,.16.02.23.06l.75.37c.27.12.37.45.23.7h0Z"/>
  </g>
</svg>